<?xml version="1.0"?>
<svg width="640" height="480" xmlns="http://www.w3.org/2000/svg">
 <!-- Created with SVG-edit - http://svg-edit.googlecode.com/ -->
 <g>
  <title>Components</title>
  <path id="svg_1" d="m23.482561,21.154289l-12.808122,3.739952l0,34.095673l114.990836,0.087875l14.511269,-3.830383l0,-34.093117l-116.693983,0zm102.880407,3.679657l0,34.248482m0,-34.248482l14.511848,-3.751526m-14.511848,3.913124l-115.545605,-0.161598" stroke="#000000" fill="#ffffaa"/>
  <text xml:space="preserve" text-anchor="middle" font-family="serif" font-size="24" id="svg_5" y="2280" x="2892" stroke-linecap="null" stroke-linejoin="null" stroke-width="0" stroke="#000000" fill="#000000">Thread Pool</text>
  <text transform="matrix(0.709601, 0, 0, 0.734345, 15.053, -3.09633)" xml:space="preserve" text-anchor="middle" font-family="serif" font-size="24" id="svg_6" y="67.408615" x="75.409243" stroke-linecap="null" stroke-linejoin="null" stroke-width="0" stroke="#000000" fill="#000000">ThreadPool</text>
  <path id="svg_8" d="m147.634216,42.062729l-17.23494,3.247902l0,29.609383l154.73436,0.076317l19.526672,-3.326385l0,-29.607216l-157.026093,0zm138.438232,3.195534l0,29.742096m0,-29.742096l19.527496,-3.257904m-19.527496,3.398251l-155.480835,-0.140347" stroke="#000000" fill="#ffffaa"/>
  <path id="svg_7" d="m147.535843,5.066528l-17.136581,3.444748l0,31.403885l153.851196,0.080948l19.415222,-3.527985l0,-31.401596l-156.129837,0zm137.648087,3.389206l0,31.544647m0,-31.544647l19.416016,-3.455353m-19.416016,3.604202l-154.593414,-0.148849" stroke="#000000" fill="#ffffaa"/>
  <text xml:space="preserve" text-anchor="middle" font-family="serif" font-size="24" id="svg_10" y="1152" x="1038" stroke-linecap="null" stroke-linejoin="null" stroke-width="0" stroke="#000000" fill="#000000">s</text>
  <text xml:space="preserve" text-anchor="middle" font-family="serif" font-size="24" id="svg_11" y="1177" x="1384" stroke-linecap="null" stroke-linejoin="null" stroke-width="0" stroke="#000000" fill="#000000">Dr</text>
  <text xml:space="preserve" text-anchor="middle" font-family="serif" font-size="24" id="svg_12" y="1121" x="1207" stroke-linecap="null" stroke-linejoin="null" stroke-width="0" stroke="#000000" fill="#000000">ddd</text>
  <text transform="matrix(0.601999, 0, 0, 0.851769, 53.6873, -11.159)" xml:space="preserve" text-anchor="middle" font-family="serif" font-size="24" id="svg_13" y="91.524246" x="255.697006" stroke-linecap="null" stroke-linejoin="null" stroke-width="0" stroke="#000000" fill="#000000">DirectoryScannerThread</text>
  <text transform="matrix(0.648239, 0, 0, 0.855861, 44.1712, -31.2005)" xml:space="preserve" text-anchor="middle" font-family="serif" font-size="24" id="svg_9" y="72.490868" x="252" stroke-linecap="null" stroke-linejoin="null" stroke-width="0" stroke="#000000" fill="#000000">XPathEvaluatorThread</text>
  <path id="svg_15" d="m23.207205,110.074135l-12.808152,3.838425l0,34.992912l114.990863,0.090195l14.511238,-3.931183l0,-34.990349l-116.693949,0zm102.880388,3.776535l0,35.149757m0,-35.149757l14.511848,-3.85025m-14.511848,4.016113l-115.545597,-0.165863" stroke="#000000" fill="#ffffaa"/>
  <path id="svg_16" d="m23.207199,181.074127l-12.808151,3.83844l0,34.992905l114.99086,0.090195l14.51123,-3.931183l0,-34.990356l-116.693939,0zm102.880394,3.77655l0,35.14975m0,-35.14975l14.511848,-3.85025m-14.511848,4.016113l-115.545602,-0.165863" stroke="#000000" fill="#ffffaa"/>
  <path id="svg_17" d="m23.207205,231.072235l-12.808152,3.740005l0,34.095657l114.990863,0.087891l14.511238,-3.830383l0,-34.09317l-116.693949,0zm102.880388,3.679703l0,34.248489m0,-34.248489l14.511848,-3.751526m-14.511848,3.913147l-115.545597,-0.161621" stroke="#000000" fill="#ffffaa"/>
  <path id="svg_18" d="m23.207205,281.072235l-12.808152,3.73999l0,34.095673l114.990863,0.08786l14.511238,-3.830383l0,-34.09314l-116.693949,0zm102.880327,3.679688l0,34.248474m0,-34.248474l14.511848,-3.751526m-14.511848,3.913147l-115.545536,-0.161621" stroke="#000000" fill="#ffffaa"/>
  <path id="svg_19" d="m342.138489,101.156181l-21.464966,3.838371l0,34.99295l192.711731,0.090164l24.319153,-3.931183l0,-34.990303l-195.565918,0zm172.415955,3.776505l0,35.149742m0,-35.149742l24.320251,-3.85025m-24.320251,4.01609l-193.641388,-0.16584" stroke="#000000" fill="#ffffaa"/>
  <path id="svg_20" d="m342.138458,151.154282l-21.464935,3.739944l0,34.095688l192.711731,0.087875l24.319153,-3.830383l0,-34.093124l-195.565948,0zm172.416046,3.679672l0,34.248474m0,-34.248474l24.32019,-3.751526m-24.32019,3.913116l-193.641479,-0.161591" stroke="#000000" fill="#ffffaa"/>
  <path id="svg_21" d="m342.139038,201.156174l-21.464905,3.838379l0,34.992935l192.711121,0.090179l24.319153,-3.931183l0,-34.990311l-195.565369,0zm172.415466,3.776505l0,35.14975m0,-35.14975l24.32019,-3.85025m-24.32019,4.016098l-193.640839,-0.165848" stroke="#000000" fill="#ffffaa"/>
  <path id="svg_22" d="m275.433441,260.154297l-15.759308,3.739929l0,34.095703l141.486603,0.087891l17.854858,-3.830383l0,-34.09314l-143.582153,0zm126.585724,3.679626l0,34.248535m0,-34.248535l17.855621,-3.751526m-17.855621,3.913147l-142.169159,-0.161621" stroke="#000000" fill="#ffffaa"/>
  <path id="svg_23" d="m456.433441,261.154297l-15.759308,3.739929l0,34.095703l141.486633,0.087891l17.854858,-3.830383l0,-34.09314l-143.582184,0zm126.585724,3.679626l0,34.248535m0,-34.248535l17.855591,-3.751526m-17.855591,3.913147l-142.169189,-0.161621" stroke="#000000" fill="#ffffaa"/>
  <path id="svg_24" d="m213.122589,351.175232l-22.448654,4.82254l0,43.965485l201.543167,0.113312l25.433655,-4.939148l0,-43.962189l-204.528168,0zm180.317322,4.744781l0,44.162537m0,-44.162537l25.434784,-4.837494m-25.434784,5.045898l-202.515457,-0.208405" stroke="#000000" fill="#ffffaa"/>
  <text transform="matrix(0.760937, 0, 0, 0.853211, 8.21589, 31.8165)" xml:space="preserve" text-anchor="middle" font-family="serif" font-size="24" id="svg_25" y="207.483871" x="78" stroke-linecap="null" stroke-linejoin="null" stroke-width="0" stroke="#000000" fill="#000000">FileManager</text>
  <text transform="matrix(0.841879, 0, 0, 0.816514, 6.56517, 19.3578)" id="svg_26" xml:space="preserve" text-anchor="middle" font-family="serif" font-size="24" y="145.370786" x="71.81218" stroke-linecap="null" stroke-linejoin="null" stroke-width="0" stroke="#000000" fill="#000000">FileLookup</text>
  <text transform="matrix(0.771029, 0, 0, 0.816514, 4.07811, 48.7615)" id="svg_27" xml:space="preserve" text-anchor="middle" font-family="serif" font-size="24" y="256.325843" x="81" stroke-linecap="null" stroke-linejoin="null" stroke-width="0" stroke="#000000" fill="#000000">ObjectCache</text>
  <text transform="matrix(0.774119, 0, 0, 0.820341, 4.38902, 54.5999)" id="svg_28" xml:space="preserve" text-anchor="middle" font-family="serif" font-size="24" y="309" x="81" stroke-linecap="null" stroke-linejoin="null" stroke-width="0" stroke="#000000" fill="#000000">IDGenerator</text>
  <text transform="matrix(0.941671, 0, 0, 0.856824, 14.2186, 38.8941)" id="svg_29" xml:space="preserve" text-anchor="middle" font-family="serif" font-size="24" y="291.746178" x="335.36489" stroke-linecap="null" stroke-linejoin="null" stroke-width="0" stroke="#000000" fill="#000000">XmlSerializer</text>
  <text transform="matrix(0.807167, 0, 0, 0.889908, 49.15, 34.1835)" id="svg_30" xml:space="preserve" text-anchor="middle" font-family="serif" font-size="24" y="287.05155" x="572.869022" stroke-linecap="null" stroke-linejoin="null" stroke-width="0" stroke="#000000" fill="#000000">XmlDeserializer</text>
  <text transform="matrix(0.94621, 0, 0, 1, 10.4957, 0)" id="svg_31" xml:space="preserve" text-anchor="middle" font-family="serif" font-size="24" y="387.5" x="297" stroke-linecap="null" stroke-linejoin="null" stroke-width="0" stroke="#000000" fill="#000000">PersistenceContainer</text>
  <text transform="matrix(0.863827, 0, 0, 0.893738, 44.3623, 12.5835)" id="svg_32" xml:space="preserve" text-anchor="middle" font-family="serif" font-size="24" y="131" x="432" stroke-linecap="null" stroke-linejoin="null" stroke-width="0" stroke="#000000" fill="#000000">XmlDocumentReader</text>
  <text transform="matrix(0.889065, 0, 0, 0.855124, 36.121, 25.9367)" id="svg_33" xml:space="preserve" text-anchor="middle" font-family="serif" font-size="24" y="180" x="429" stroke-linecap="null" stroke-linejoin="null" stroke-width="0" stroke="#000000" fill="#000000">XmlDocumentWriter</text>
  <text transform="matrix(0.829444, 0, 0, 0.82226, 57.2619, 39.1581)" id="svg_34" xml:space="preserve" text-anchor="middle" font-family="serif" font-size="24" y="231" x="435" stroke-linecap="null" stroke-linejoin="null" stroke-width="0" stroke="#000000" fill="#000000">TransformationFactory</text>
  <path id="svg_35" d="m334.800354,315.048431l3.512146,-9.478119l3.512146,9.478119l-1.755859,0l0,9.522247l-3.512573,0l0,-9.522247l-1.755859,0z" stroke-linecap="null" stroke-linejoin="null" stroke-width="0" stroke="#000000" fill="#000000"/>
  <path id="svg_36" d="m1485.031616,1172.616333l0.500244,-0.498535l0.500244,0.498535l-0.250122,0l0,0.500977l-0.500122,0l0,-0.500977z" stroke-linecap="null" stroke-linejoin="null" stroke-width="0" stroke="#000000" fill="#000000"/>
  <path transform="rotate(-90, 160.462, 300.07)" id="svg_37" d="m156.94957,300.048431l3.512146,-9.478119l3.512146,9.478119l-1.755859,0l0,9.522247l-3.512573,0l0,-9.522247l-1.755859,0z" stroke-linecap="null" stroke-linejoin="null" stroke-width="0" stroke="#000000" fill="#000000"/>
  <rect id="svg_38" height="3" width="349.999966" y="324.000001" x="170.000018" stroke-linecap="null" stroke-linejoin="null" stroke-width="0" stroke="#000000" fill="#000000"/>
  <path id="svg_39" d="m514.800354,315.048431l3.512146,-9.478119l3.512146,9.478119l-1.755859,0l0,9.522247l-3.512573,0l0,-9.522247l-1.755859,0z" stroke-linecap="null" stroke-linejoin="null" stroke-width="0" stroke="#000000" fill="#000000"/>
  <rect transform="rotate(90, 298.5, 337.25)" id="svg_40" height="3.5" width="22.000001" y="335.500002" x="287.500003" stroke-linecap="null" stroke-linejoin="null" stroke-width="0" stroke="#000000" fill="#000000"/>
  <path id="svg_41" transform="rotate(-90, 160.461, 250.07)" d="m156.94957,250.048431l3.512146,-9.478119l3.512146,9.478119l-1.755859,0l0,9.522247l-3.512573,0l0,-9.522247l-1.755859,0z" stroke-linecap="null" stroke-linejoin="null" stroke-width="0" stroke="#000000" fill="#000000"/>
  <path id="svg_42" transform="rotate(-90, 160.461, 200.07)" d="m156.94957,200.048431l3.512146,-9.478119l3.512146,9.478119l-1.755859,0l0,9.522247l-3.512573,0l0,-9.522247l-1.755859,0z" stroke-linecap="null" stroke-linejoin="null" stroke-width="0" stroke="#000000" fill="#000000"/>
  <path id="svg_43" transform="rotate(-90, 160.461, 129.07)" d="m156.94957,129.048431l3.512146,-9.478119l3.512146,9.478119l-1.755859,0l0,9.522247l-3.512573,0l0,-9.522247l-1.755859,0z" stroke-linecap="null" stroke-linejoin="null" stroke-width="0" stroke="#000000" fill="#000000"/>
  <path id="svg_44" d="m66.200356,73.048431l3.512146,-9.478119l3.512146,9.478119l-1.755859,0l0,9.522247l-3.512573,0l0,-9.522247l-1.755859,0z" stroke-linecap="null" stroke-linejoin="null" stroke-width="0" stroke="#000000" fill="#000000"/>
  <rect id="svg_45" transform="rotate(90, 171.801, 225.75)" height="3.5" width="196.999977" y="223.999954" x="73.294918" stroke-linecap="null" stroke-linejoin="null" stroke-width="0" stroke="#000000" fill="#000000"/>
  <path transform="rotate(90, 299.52, 220.07)" id="svg_46" d="m296.007385,220.048431l3.512146,-9.478119l3.512146,9.478119l-1.755859,0l0,9.522247l-3.512573,0l0,-9.522247l-1.755859,0z" stroke-linecap="null" stroke-linejoin="null" stroke-width="0" stroke="#000000" fill="#000000"/>
  <path id="svg_47" transform="rotate(90, 299.519, 170.07)" d="m296.007385,170.048431l3.512146,-9.478119l3.512146,9.478119l-1.755859,0l0,9.522247l-3.512573,0l0,-9.522247l-1.755859,0z" stroke-linecap="null" stroke-linejoin="null" stroke-width="0" stroke="#000000" fill="#000000"/>
  <path transform="rotate(-90, 560.52, 220.07)" id="svg_48" d="m557.007385,220.048431l3.512146,-9.478119l3.512146,9.478119l-1.755859,0l0,9.522247l-3.512573,0l0,-9.522247l-1.755859,0z" stroke-linecap="null" stroke-linejoin="null" stroke-width="0" stroke="#000000" fill="#000000"/>
  <path id="svg_49" transform="rotate(-90, 560.519, 120.07)" d="m557.007385,120.048431l3.512146,-9.478119l3.512146,9.478119l-1.755859,0l0,9.522247l-3.512573,0l0,-9.522247l-1.755859,0z" stroke-linecap="null" stroke-linejoin="null" stroke-width="0" stroke="#000000" fill="#000000"/>
  <rect id="svg_50" transform="rotate(90, 288.801, 211.746)" height="3.5" width="86.999991" y="209.995834" x="245.300135" stroke-linecap="null" stroke-linejoin="null" stroke-width="0" stroke="#000000" fill="#000000"/>
  <rect id="svg_51" transform="rotate(90, 571.801, 186.746)" height="3.5" width="136.999984" y="184.995819" x="503.299653" stroke-linecap="null" stroke-linejoin="null" stroke-width="0" stroke="#000000" fill="#000000"/>
  <rect id="svg_52" transform="rotate(90, 69.8004, 93.7418)" height="3.5" width="22.999997" y="91.991074" x="58.300786" stroke-linecap="null" stroke-linejoin="null" stroke-width="0" stroke="#000000" fill="#000000"/>
 </g>
</svg>